<svg width="200" height="200" viewBox="0 0 200 200" fill="none" xmlns="http://www.w3.org/2000/svg">
  <!-- Leaf icon -->
  <g transform="translate(50, 30)">
    <!-- Main leaf -->
    <path d="M50 10 C70 10, 85 25, 85 45 C85 65, 70 80, 50 80 C30 80, 15 65, 15 45 C15 25, 30 10, 50 10 Z" 
          fill="#4ade80" stroke="#16a34a" stroke-width="2"/>
    <!-- Leaf veins -->
    <path d="M50 15 L50 75 M35 30 L50 45 M65 30 L50 45 M35 60 L50 45 M65 60 L50 45" 
          stroke="#16a34a" stroke-width="1.5" fill="none"/>
    
    <!-- Second leaf -->
    <path d="M30 25 C45 20, 60 30, 65 45 C70 60, 60 75, 45 80 C30 85, 15 75, 10 60 C5 45, 15 30, 30 25 Z" 
          fill="#22c55e" stroke="#15803d" stroke-width="2"/>
    <!-- Second leaf veins -->
    <path d="M32 30 L45 70 M25 40 L40 55 M40 35 L35 50 M50 50 L40 55 M50 65 L40 55" 
          stroke="#15803d" stroke-width="1.5" fill="none"/>
    
    <!-- Third leaf -->
    <path d="M70 25 C85 30, 95 45, 90 60 C85 75, 70 85, 55 80 C40 75, 30 60, 35 45 C40 30, 55 20, 70 25 Z" 
          fill="#65a30d" stroke="#166534" stroke-width="2"/>
    <!-- Third leaf veins -->
    <path d="M68 30 L55 70 M75 40 L60 55 M60 35 L65 50 M50 50 L60 55 M50 65 L60 55" 
          stroke="#166534" stroke-width="1.5" fill="none"/>
    
    <!-- Stem -->
    <path d="M50 80 Q52 90, 50 100" stroke="#16a34a" stroke-width="3" fill="none"/>
  </g>
  
  <!-- Text -->
  <text x="100" y="130" text-anchor="middle" font-family="Inter, sans-serif" font-weight="800" font-size="24" fill="#1e293b">
    Pure
  </text>
  <text x="100" y="155" text-anchor="middle" font-family="Inter, sans-serif" font-weight="800" font-size="24" fill="#1e293b">
    Living
  </text>
  <text x="100" y="180" text-anchor="middle" font-family="Inter, sans-serif" font-weight="800" font-size="24" fill="#22c55e">
    Pro
  </text>
</svg>
